<svg width="64" height="64" viewBox="0 0 64 64" xmlns="http://www.w3.org/2000/svg">
  <polygon points="18.5,5.118000000000002 22.0,8.618000000000002 18.5,12.118000000000002 15.0,8.618000000000002" fill="#b8f57a"/>
  <polygon points="27.5,5.118000000000002 31.0,8.618000000000002 27.5,12.118000000000002 24.0,8.618000000000002" fill="#b8f57a"/>
  <polygon points="36.5,5.118000000000002 40.0,8.618000000000002 36.5,12.118000000000002 33.0,8.618000000000002" fill="#b8f57a"/>
  <polygon points="45.5,5.118000000000002 49.0,8.618000000000002 45.5,12.118000000000002 42.0,8.618000000000002" fill="#b8f57a"/>
  <polygon points="50.0,12.911999999999999 53.5,16.412 50.0,19.912 46.5,16.412" fill="#b8f57a"/>
  <polygon points="54.5,20.706 58.0,24.206 54.5,27.706 51.0,24.206" fill="#b8f57a"/>
  <polygon points="59.0,28.5 62.5,32.0 59.0,35.5 55.5,32.0" fill="#b8f57a"/>
  <polygon points="54.5,36.294 58.0,39.794 54.5,43.294 51.0,39.794" fill="#b8f57a"/>
  <polygon points="50.0,44.088 53.5,47.588 50.0,51.088 46.5,47.588" fill="#b8f57a"/>
  <polygon points="45.5,51.882 49.0,55.382 45.5,58.882 42.0,55.382" fill="#b8f57a"/>
  <polygon points="36.5,51.882 40.0,55.382 36.5,58.882 33.0,55.382" fill="#b8f57a"/>
  <polygon points="27.5,51.882 31.0,55.382 27.5,58.882 24.0,55.382" fill="#b8f57a"/>
  <polygon points="18.5,51.882 22.0,55.382 18.5,58.882 15.0,55.382" fill="#b8f57a"/>
  <polygon points="14.0,44.088 17.5,47.588 14.0,51.088 10.5,47.588" fill="#b8f57a"/>
  <polygon points="9.5,36.294 13.0,39.794 9.5,43.294 6.0,39.794" fill="#b8f57a"/>
  <polygon points="5.0,28.5 8.5,32.0 5.0,35.5 1.5,32.0" fill="#b8f57a"/>
  <polygon points="9.5,20.706 13.0,24.206 9.5,27.706 6.0,24.206" fill="#b8f57a"/>
  <polygon points="14.0,12.911999999999999 17.5,16.412 14.0,19.912 10.5,16.412" fill="#b8f57a"/>
  <polygon points="23.0,12.911999999999999 26.5,16.412 23.0,19.912 19.5,16.412" fill="#f97316"/>
  <polygon points="32.0,12.911999999999999 35.5,16.412 32.0,19.912 28.5,16.412" fill="#f97316"/>
  <polygon points="41.0,12.911999999999999 44.5,16.412 41.0,19.912 37.5,16.412" fill="#f97316"/>
  <polygon points="45.5,20.706 49.0,24.206 45.5,27.706 42.0,24.206" fill="#f97316"/>
  <polygon points="50.0,28.5 53.5,32.0 50.0,35.5 46.5,32.0" fill="#f97316"/>
  <polygon points="45.5,36.294 49.0,39.794 45.5,43.294 42.0,39.794" fill="#f97316"/>
  <polygon points="41.0,44.088 44.5,47.588 41.0,51.088 37.5,47.588" fill="#f97316"/>
  <polygon points="32.0,44.088 35.5,47.588 32.0,51.088 28.5,47.588" fill="#f97316"/>
  <polygon points="23.0,44.088 26.5,47.588 23.0,51.088 19.5,47.588" fill="#f97316"/>
  <polygon points="18.5,36.294 22.0,39.794 18.5,43.294 15.0,39.794" fill="#f97316"/>
  <polygon points="14.0,28.5 17.5,32.0 14.0,35.5 10.5,32.0" fill="#f97316"/>
  <polygon points="18.5,20.706 22.0,24.206 18.5,27.706 15.0,24.206" fill="#f97316"/>
  <polygon points="27.5,20.706 31.0,24.206 27.5,27.706 24.0,24.206" fill="#b8f57a"/>
  <polygon points="36.5,20.706 40.0,24.206 36.5,27.706 33.0,24.206" fill="#b8f57a"/>
  <polygon points="41.0,28.5 44.5,32.0 41.0,35.5 37.5,32.0" fill="#b8f57a"/>
  <polygon points="36.5,36.294 40.0,39.794 36.5,43.294 33.0,39.794" fill="#b8f57a"/>
  <polygon points="27.5,36.294 31.0,39.794 27.5,43.294 24.0,39.794" fill="#b8f57a"/>
  <polygon points="23.0,28.5 26.5,32.0 23.0,35.5 19.5,32.0" fill="#b8f57a"/>
  <polygon points="32.0,27.5 36.5,32.0 32.0,36.5 27.5,32.0" fill="#f97316"/>
  <polygon points="32.0,30.0 34.0,32.0 32.0,34.0 30.0,32.0" fill="#b8f57a"/>
</svg>